<svg xmlns="http://www.w3.org/2000/svg" viewBox="0 0 128 128" width="128" height="128">
  <!-- Background gradient circle -->
  <defs>
    <linearGradient id="grad1" x1="0%" y1="0%" x2="100%" y2="100%">
      <stop offset="0%" style="stop-color:#667eea;stop-opacity:1" />
      <stop offset="100%" style="stop-color:#764ba2;stop-opacity:1" />
    </linearGradient>
    <linearGradient id="grad2" x1="0%" y1="0%" x2="100%" y2="100%">
      <stop offset="0%" style="stop-color:#ffffff;stop-opacity:1" />
      <stop offset="100%" style="stop-color:#f0f0f0;stop-opacity:1" />
    </linearGradient>
  </defs>
  
  <!-- Main circle background -->
  <circle cx="64" cy="64" r="60" fill="url(#grad1)"/>
  
  <!-- Browser tab shape -->
  <g transform="translate(28, 35)">
    <!-- Tab background -->
    <path d="M 0 20 L 0 8 Q 0 4 4 4 L 16 4 Q 20 4 20 0 L 52 0 Q 56 0 56 4 L 68 4 Q 72 4 72 8 L 72 48 Q 72 52 68 52 L 4 52 Q 0 52 0 48 Z" 
          fill="url(#grad2)" 
          opacity="0.95"/>
    
    <!-- Tab lines (representing content) -->
    <rect x="10" y="18" width="52" height="3" rx="1.5" fill="#667eea" opacity="0.8"/>
    <rect x="10" y="26" width="40" height="3" rx="1.5" fill="#667eea" opacity="0.6"/>
    <rect x="10" y="34" width="48" height="3" rx="1.5" fill="#667eea" opacity="0.6"/>
    <rect x="10" y="42" width="35" height="3" rx="1.5" fill="#667eea" opacity="0.6"/>
  </g>
  
  <!-- Plus symbol in top right to indicate "new" -->
  <g transform="translate(88, 24)">
    <circle cx="0" cy="0" r="14" fill="#10b981"/>
    <rect x="-8" y="-2" width="16" height="4" rx="2" fill="white"/>
    <rect x="-2" y="-8" width="4" height="16" rx="2" fill="white"/>
  </g>
</svg>
